<svg id="Grupo_2" data-name="Grupo 2" xmlns="http://www.w3.org/2000/svg" xmlns:xlink="http://www.w3.org/1999/xlink" width="205.007" height="58.418" viewBox="0 0 205.007 58.418">
  <defs>
    <clipPath id="clip-path">
      <rect id="Rectángulo_1" data-name="Rectángulo 1" width="205.007" height="58.418" fill="none"/>
    </clipPath>
  </defs>
  <g id="Grupo_1" data-name="Grupo 1" clip-path="url(#clip-path)">
    <path id="Trazado_1" data-name="Trazado 1" d="M6.929,25.843A4.245,4.245,0,0,1,8.076,28.9a4.174,4.174,0,0,1-1.146,3,3.827,3.827,0,0,1-2.892,1.2,3.825,3.825,0,0,1-2.892-1.2A4.173,4.173,0,0,1,0,28.9a4.244,4.244,0,0,1,1.146-3.056,3.826,3.826,0,0,1,2.892-1.2,3.828,3.828,0,0,1,2.892,1.2M.545,37.192H7.639V66.384H.545Zm38.249,2.756a11.4,11.4,0,0,1,2.892,8.212V66.384H34.538V50.233A6.584,6.584,0,0,0,32.792,45.4a6.361,6.361,0,0,0-4.746-1.774,7.2,7.2,0,0,0-5.593,2.4,8.806,8.806,0,0,0-2.046,6v14.35H13.313V37.193h7.094v5.457q3-5.619,10.476-5.729a10.418,10.418,0,0,1,7.912,3.028M63.62,64.584a13.845,13.845,0,0,1-7.311,2.128,8.747,8.747,0,0,1-6.166-2.21q-2.4-2.209-2.4-6.52v-14.4H43.649L43.6,38.392h4.147V30.372h7.039v8.021h8.348v5.184H54.781v13.15a4.255,4.255,0,0,0,.764,2.865,2.932,2.932,0,0,0,2.292.845,10.148,10.148,0,0,0,4.147-1.2Zm28.374-12.44q0-7.2-3.519-11.186t-10.5-3.984a15.549,15.549,0,0,0-7.693,1.883,13.326,13.326,0,0,0-5.266,5.265A15.669,15.669,0,0,0,63.13,51.87a15.683,15.683,0,0,0,1.855,7.721,12.956,12.956,0,0,0,5.266,5.21,16.23,16.23,0,0,0,7.884,1.856,17.888,17.888,0,0,0,6.957-1.31,14.755,14.755,0,0,0,5.32-3.71l-3.819-3.983a10.457,10.457,0,0,1-3.574,2.428,11.064,11.064,0,0,1-4.283.847,8.133,8.133,0,0,1-8.349-6.657H91.939q.055-.709.055-2.127m-21.771-2.62a8.311,8.311,0,0,1,2.591-5.156,8.295,8.295,0,0,1,10.558.027A7.084,7.084,0,0,1,85.5,49.524Zm31.155-23.68a4.244,4.244,0,0,1,1.146,3.056,4.174,4.174,0,0,1-1.146,3,4.082,4.082,0,0,1-5.783,0,4.176,4.176,0,0,1-1.147-3A4.246,4.246,0,0,1,95.6,25.843a4.083,4.083,0,0,1,5.783,0M94.995,37.192h7.094V66.384H94.995Zm36.995,29.192-.054-19.1a9.743,9.743,0,0,0-3.193-7.639q-3.138-2.728-8.811-2.728a22.9,22.9,0,0,0-6.576.846,32.275,32.275,0,0,0-6.248,2.755l2.565,4.911a16.863,16.863,0,0,1,8.675-2.728,7.464,7.464,0,0,1,4.911,1.418,4.919,4.919,0,0,1,1.691,3.984v.764h-8.512q-5.294.056-8.185,2.374a7.765,7.765,0,0,0-2.892,6.411,8.771,8.771,0,0,0,1.254,4.638,8.6,8.6,0,0,0,3.574,3.247,11.748,11.748,0,0,0,5.375,1.173,14.456,14.456,0,0,0,5.51-.982A9.553,9.553,0,0,0,125,62.837v3.547Zm-7.039-10.15a5.026,5.026,0,0,1-2.455,3.575,9.264,9.264,0,0,1-5.238,1.447,5.982,5.982,0,0,1-3.793-1.092,3.547,3.547,0,0,1-1.391-2.947,3.012,3.012,0,0,1,1.338-2.755,8.017,8.017,0,0,1,4.173-.845h7.367Z" transform="translate(0 -16.468)" fill="#003087"/>
    <path id="Trazado_2" data-name="Trazado 2" d="M467.375,44.775,445.89,23.29A13.643,13.643,0,0,1,465.185,4L471.1,9.912,477.019,4A13.643,13.643,0,0,1,496.314,23.29L490.4,29.208l-1.864-1.864a24.843,24.843,0,0,0-1.964-1.765l6.017-6.017A8.37,8.37,0,0,0,480.748,7.725l-7.783,7.781a2.635,2.635,0,0,1-3.727,0l-7.782-7.781a8.37,8.37,0,0,0-11.837,11.836L471.1,41.046Z" transform="translate(-295.306 0)" fill="#fe5000"/>
    <path id="Trazado_3" data-name="Trazado 3" d="M484.8,89.912a19.526,19.526,0,0,0-1.993-1.738l-21.358,21.359A8.371,8.371,0,1,1,449.611,97.7l5.92-5.92L451.8,88.047l-5.92,5.92a13.643,13.643,0,0,0,19.295,19.295l21.485-21.486Z" transform="translate(-295.301 -58.839)" fill="#003087"/>
    <path id="Trazado_4" data-name="Trazado 4" d="M524,75.668l-7.784-7.783a24.655,24.655,0,0,0-32.9-1.767l3.756,3.756a19.384,19.384,0,0,1,25.414,1.739l7.783,7.784a8.37,8.37,0,0,1-11.836,11.838l-5.92-5.92-3.729,3.728,5.919,5.921A13.644,13.644,0,0,0,524,75.668" transform="translate(-322.986 -40.54)" fill="#09f"/>
  </g>
</svg>
